<?xml version="1.0" standalone="no"?>
<!DOCTYPE svg PUBLIC "-//W3C//DTD SVG 20010904//EN"
 "http://www.w3.org/TR/2001/REC-SVG-20010904/DTD/svg10.dtd">
<svg version="1.0" xmlns="http://www.w3.org/2000/svg"
 width="256.000000pt" height="256.000000pt" viewBox="0 0 256.000000 256.000000"
 preserveAspectRatio="xMidYMid meet">
<metadata>
Created by potrace 1.11, written by Peter Selinger 2001-2013
</metadata>
<g transform="translate(0.000000,256.000000) scale(0.100000,-0.100000)"
fill="#000000" stroke="none">
<path d="M673 2428 c-55 -21 -88 -50 -116 -103 -20 -37 -21 -57 -23 -277 -1
-169 2 -238 10 -240 6 -2 54 -4 106 -3 l95 0 2 90 c1 50 2 97 2 106 1 14 54
16 531 17 l530 1 1 -27 c0 -15 1 -63 2 -107 l2 -79 95 -1 c52 -1 100 0 107 3
15 5 11 465 -5 503 -18 45 -70 96 -115 114 -38 16 -95 18 -610 19 -516 1 -573
0 -614 -16z"/>
<path d="M670 1515 l-244 -244 244 -246 245 -245 72 72 c40 40 73 76 73 80 0
4 -75 82 -166 173 l-166 166 163 164 c90 90 165 167 166 172 2 5 -30 41 -70
81 l-72 72 -245 -245z"/>
<path d="M1570 1685 c-40 -41 -72 -77 -69 -80 2 -2 78 -79 167 -169 l164 -164
-166 -166 c-91 -92 -166 -170 -166 -174 0 -4 33 -40 73 -79 l72 -72 245 245
245 244 -245 245 -245 245 -75 -75z"/>
<path d="M535 496 c1 -153 6 -251 13 -268 19 -45 87 -106 134 -119 60 -16
1160 -16 1203 1 49 19 94 58 117 103 21 40 22 54 23 282 l0 240 -106 2 -105 2
0 -107 0 -107 -532 0 c-349 0 -532 3 -533 10 -1 5 -1 53 -1 106 l0 95 -107 1
-108 0 2 -241z"/>
</g>
</svg>
